<svg xmlns="http://www.w3.org/2000/svg" version="1.1" id="Layer_1" x="0" y="0" viewBox="0 0 213.6 143.2" enable-background="new 0 0 213.6 143.2" xml:space="preserve"><path d="M64.6 7.2l19 50.3H67.5l-2.6-7.3H47.2l-2.6 7.3H29L48 7.2H64.6zM51.9 37.4h8.4l-4.2-11.6L51.9 37.4z"/><path d="M133 57.5h-13l-18.4-25.2v25.2H86.3V7.2h14.8l16.6 23.4V7.2H133V57.5z"/><path d="M138.4 7.2h20.2c16.3 0 25.9 9.8 25.9 25.2 0 15.3-9.6 25.2-25.9 25.2h-20.2V7.2zM157.9 43.9c7 0 11.1-4.5 11.1-11.6 0-7.1-4-11.6-11.1-11.6H154v23.2H157.9z"/><path d="M10.7 71.2h45.6v13.5H41.5v36.8H25.6V84.7H10.7V71.2z"/><path d="M107.9 71.2v50.3H92v-18.7h-16v18.7H60.2V71.2h15.9v18.1h16V71.2H107.9z"/><path d="M151.2 71.2v13.5H129v4.8h20.3v13.1H129v5.3h22.2v13.6h-37.9V71.2H151.2z"/><path d="M202.9 121.5h-13l-18.4-25.2v25.2h-15.3V71.2H171l16.6 23.4V71.2h15.3V121.5z"/><line x1="10.7" y1="132.5" x2="202.9" y2="132.5"/><rect x="10.7" y="129" width="192.1" height="7"/></svg>