<?xml version="1.0" encoding="utf-8"?>
<!-- Generator: Adobe Illustrator 18.1.1, SVG Export Plug-In . SVG Version: 6.00 Build 0)  -->
<!DOCTYPE svg PUBLIC "-//W3C//DTD SVG 1.1//EN" "http://www.w3.org/Graphics/SVG/1.1/DTD/svg11.dtd">
<svg version="1.1" id="Layer_1" xmlns="http://www.w3.org/2000/svg" xmlns:xlink="http://www.w3.org/1999/xlink" x="0px" y="0px"
	 viewBox="0 0 204.8 372.1" enable-background="new 0 0 204.8 372.1" xml:space="preserve">
<path d="M60.2,11.2l19,50.3H63.2l-2.6-7.3H42.8l-2.6,7.3H24.6l19-50.3H60.2z M47.5,41.4h8.4l-4.2-11.6L47.5,41.4z"/>
<path d="M128.6,61.6h-13L97.2,36.4v25.2H81.9V11.2h14.8l16.6,23.4V11.2h15.3V61.6z"/>
<path d="M134.1,11.2h20.2c16.3,0,25.9,9.8,25.9,25.2c0,15.3-9.6,25.2-25.9,25.2h-20.2V11.2z M153.5,48c7,0,11.1-4.5,11.1-11.6
	c0-7.1-4-11.6-11.1-11.6h-3.9V48H153.5z"/>
<path d="M102.4,175.4c49.2,0,89.2,40,89.2,89.2s-40,89.2-89.2,89.2s-89.2-40-89.2-89.2S53.2,175.4,102.4,175.4 M102.4,168.4
	c-53.1,0-96.2,43.1-96.2,96.2s43.1,96.2,96.2,96.2s96.2-43.1,96.2-96.2S155.6,168.4,102.4,168.4L102.4,168.4z"/>
<path d="M143.2,239.5c0,0-42.5,25.2-56.4,25.2s-25.2-11.3-25.2-25.2s11.3-25.2,25.2-25.2S143.2,239.5,143.2,239.5z"/>
<path d="M61.6,289.8c0,0,42.5-25.2,56.4-25.2s25.2,11.3,25.2,25.2S132,315.1,118,315.1S61.6,289.8,61.6,289.8z"/>
<path d="M6.3,75.2h45.6v13.5H37.1v36.8H21.2V88.8H6.3V75.2z"/>
<path d="M103.6,75.2v50.3H87.7v-18.7h-16v18.7H55.8V75.2h15.9v18.1h16V75.2H103.6z"/>
<path d="M146.8,75.2v13.5h-22.2v4.8H145v13.1h-20.3v5.3h22.2v13.6H109V75.2H146.8z"/>
<path d="M198.5,125.6h-13l-18.4-25.2v25.2h-15.3V75.2h14.8l16.6,23.4V75.2h15.3V125.6z"/>
<g>
	<rect x="6.3" y="133" width="192.1" height="7"/>
</g>
</svg>
